<?xml version="1.0" encoding="utf-8"?><svg viewBox="0 0 120 123" xmlns="http://www.w3.org/2000/svg" xmlns:xlink="http://www.w3.org/1999/xlink"><style>:root>svg{display:none}:root>svg:target{display:block}</style><svg fill="none" viewBox="0 0 120 123" id="CoffeLogo" xmlns="http://www.w3.org/2000/svg"><path d="M60.002 90.757c-1.97 0-3.574 2.19-3.574 4.88 0 2.689 1.604 4.878 3.575 4.878 1.97 0 3.569-2.19 3.569-4.879 0-2.69-1.599-4.879-3.57-4.879Zm0 10.644c-2.46 0-4.456-2.587-4.456-5.765 0-3.178 1.995-5.764 4.456-5.764 2.457 0 4.457 2.586 4.457 5.764 0 3.178-2 5.765-4.457 5.765Z" fill="#EEE"/><path d="M59.904 99.582a.447.447 0 0 1-.412-.276c-.029-.073-.72-1.822.138-3.843.7-1.653-.103-3.097-.113-3.111a.442.442 0 1 1 .77-.439c.044.075 1.03 1.843.157 3.896-.716 1.686-.138 3.15-.133 3.164a.441.441 0 0 1-.407.61ZM59.174 34.022a.304.304 0 0 1-.21-.087l-.927-.93a.29.29 0 0 1 0-.418.294.294 0 0 1 .416 0l.927.931a.29.29 0 0 1 0 .417.284.284 0 0 1-.206.087ZM60.605 33.807a.286.286 0 0 1-.205-.086l-.932-.928a.3.3 0 0 1 0-.417.294.294 0 0 1 .417 0l.931.928a.3.3 0 0 1 0 .417.306.306 0 0 1-.21.086ZM62.199 33.68a.295.295 0 0 1-.211-.087l-1.162-1.164a.29.29 0 0 1 0-.417.294.294 0 0 1 .417 0l1.162 1.164a.29.29 0 0 1 0 .417.293.293 0 0 1-.206.087ZM63.454 32.988a.295.295 0 0 1-.206-.087l-1.181-1.18a.294.294 0 1 1 .417-.417l1.18 1.18a.29.29 0 0 1 0 .417.298.298 0 0 1-.21.087ZM64.635 32.012a.305.305 0 0 1-.21-.086l-1.177-1.179a.291.291 0 0 1 0-.418.295.295 0 0 1 .417 0l1.176 1.18a.291.291 0 0 1 0 .417.286.286 0 0 1-.206.086ZM65.552 30.858a.284.284 0 0 1-.206-.086l-1.181-1.18a.294.294 0 1 1 .417-.417l1.181 1.18a.3.3 0 0 1 0 .417.295.295 0 0 1-.21.086ZM66.386 29.704a.297.297 0 0 1-.211-.087l-1.177-1.179a.291.291 0 0 1 0-.418.294.294 0 0 1 .417 0l1.176 1.18a.29.29 0 0 1 0 .417.295.295 0 0 1-.205.087ZM66.974 28.285a.305.305 0 0 1-.211-.086l-1.177-1.18a.29.29 0 0 1 0-.417.294.294 0 0 1 .417 0l1.182 1.18a.3.3 0 0 1 0 .417.305.305 0 0 1-.211.086ZM67.278 26.724a.286.286 0 0 1-.206-.087l-.96-.958a.294.294 0 1 1 .417-.418l.96.959a.3.3 0 0 1 0 .418.297.297 0 0 1-.211.086ZM67.758 25.512a.305.305 0 0 1-.21-.087l-.957-.958a.29.29 0 0 1 0-.417.294.294 0 0 1 .417 0l.956.958a.29.29 0 0 1 0 .417.285.285 0 0 1-.206.087Z" fill="#EEE"/><path d="m52.904 23.722.333 3.511a6.491 6.491 0 0 0 6.49 5.904h.525a6.487 6.487 0 0 0 6.486-5.904l.334-3.511H52.903Zm7.348 10.596h-.524a7.66 7.66 0 0 1-7.663-6.974l-.397-4.157a.59.59 0 0 1 .588-.646h15.468a.587.587 0 0 1 .583.646l-.392 4.157a7.664 7.664 0 0 1-7.663 6.974Z" fill="#EEE"/><path d="M67.45 29.974h-.368a.591.591 0 1 1 0-1.181h.367c.75 0 1.383-.694 1.481-1.614l.093-.861a.657.657 0 0 0-.142-.488.295.295 0 0 0-.216-.109h-.96a.59.59 0 0 1 0-1.18h.96c.417 0 .804.177 1.093.499.334.37.49.88.437 1.401l-.093.862c-.157 1.523-1.3 2.67-2.653 2.67ZM81.22 6.332a.443.443 0 1 0-.833-.303l-3.78 10.38c.28.103.555.213.829.32l3.785-10.397ZM49.879 3.36a.447.447 0 0 0-.515-.36.441.441 0 0 0-.358.513l1.892 10.744c.29-.052.579-.108.873-.155L49.88 3.359ZM45.815 8.667a.445.445 0 0 0-.858.23l1.696 6.325c.284-.078.564-.164.853-.237l-1.691-6.318ZM56.075 13.39a.44.44 0 0 0-.48-.402.446.446 0 0 0-.402.48l.02.187c.289-.028.588-.044.882-.067l-.02-.197ZM39.618 6.029a.442.442 0 1 0-.833.303L42.5 16.546c.28-.103.56-.195.839-.293L39.618 6.03ZM36.534 11.961a.441.441 0 1 0-.8.375l2.751 5.902c.265-.126.54-.243.809-.364l-2.76-5.912ZM64.36 13.529a.426.426 0 0 0-.274.074c.182.016.358.038.54.055a.429.429 0 0 0-.265-.13ZM75.044 8.896a.441.441 0 1 0-.853-.229l-1.726 6.43c.29.078.573.152.858.234l1.72-6.435ZM84.27 12.336a.444.444 0 0 0-.804-.375l-2.853 6.123c.264.125.534.248.799.378l2.858-6.126ZM70.999 3.513a.441.441 0 0 0-.358-.512.447.447 0 0 0-.515.358l-1.902 10.79c.29.052.583.105.873.162l1.902-10.798ZM13.698 23.898a.448.448 0 0 0-.628.054.44.44 0 0 0 .06.624l8.216 6.897c.191-.226.387-.446.578-.668l-8.226-6.907ZM9.006 39.063a.443.443 0 1 0-.373.802l3.707 1.729h2.093l-5.427-2.53ZM29.974 10.44a.44.44 0 0 0-.603-.163.443.443 0 0 0-.162.605l5.423 9.393c.255-.149.51-.297.77-.442l-5.428-9.393ZM7.55 32.538a.44.44 0 0 0-.603.162.443.443 0 0 0 .162.605l9.226 5.328c.147-.256.29-.516.442-.768L7.55 32.538ZM90.795 10.882a.443.443 0 1 0-.77-.442l-5.564 9.638c.26.146.515.296.765.446l5.57-9.642ZM27.974 16.817a.444.444 0 1 0-.726.508l3.717 5.308c.24-.17.475-.347.72-.513l-3.711-5.303ZM21.248 16.456a.441.441 0 0 0-.623-.054.435.435 0 0 0-.054.624l6.937 8.271c.226-.19.451-.381.682-.568l-6.942-8.273ZM99.434 17.026a.442.442 0 1 0-.677-.57l-7.138 8.508c.23.186.456.372.682.56l7.133-8.498ZM60.444 13.431v-.009a.44.44 0 0 0-.442-.442.445.445 0 0 0-.446.442v.011c.152 0 .294-.01.446-.01.148 0 .295.007.442.008ZM20.38 23.085a.438.438 0 0 0-.623 0 .436.436 0 0 0 0 .626l4.535 4.535c.206-.21.427-.408.638-.614l-4.55-4.547ZM108.41 41.207l.01.035 2.952-1.377a.442.442 0 1 0-.373-.802l-4.638 2.163c.917-.052 2.005-.132 2.049-.02ZM19.757 101.18a.436.436 0 0 0 0 .626.43.43 0 0 0 .31.13c.117 0 .23-.044.313-.13l4.015-4.013c-.21-.208-.412-.426-.613-.638l-4.025 4.025ZM99.62 101.806a.45.45 0 0 0 .314.13.45.45 0 0 0 .314-.13.446.446 0 0 0 0-.626l-4.025-4.025c-.206.211-.407.43-.613.638l4.01 4.013ZM59.556 112.503v9.876c0 .245.201.443.446.443a.441.441 0 0 0 .442-.443v-9.876c-.147.001-.294.011-.442.011-.152 0-.294-.01-.446-.011ZM106.876 24.577a.442.442 0 1 0-.569-.678l-8.378 7.03c.2.22.392.443.583.665l8.364-7.017ZM100.248 23.712a.446.446 0 0 0 0-.627.445.445 0 0 0-.628 0l-4.73 4.734c.215.203.426.407.636.613l4.722-4.72ZM106.518 31.302a.45.45 0 0 0 .108-.617.446.446 0 0 0-.618-.109l-5.3 3.712c.177.236.358.472.53.71l5.28-3.696ZM112.891 33.305a.439.439 0 0 0 .162-.605.438.438 0 0 0-.603-.162l-9.261 5.347c.157.251.319.502.466.753l9.236-5.333ZM92.757 17.325a.442.442 0 1 0-.725-.508l-3.894 5.56c.24.168.486.337.726.507l3.892-5.56ZM13.997 30.576a.444.444 0 0 0-.51.726l5.202 3.643c.171-.242.338-.483.514-.722l-5.206-3.647ZM74.19 116.224a.44.44 0 0 0 .427.328l.118-.014a.442.442 0 0 0 .308-.543l-1.431-5.355c-.284.08-.569.168-.853.243l1.431 5.341ZM80.387 118.863a.44.44 0 0 0 .57.265.447.447 0 0 0 .264-.568l-3.388-9.3c-.274.104-.549.209-.828.308l3.382 9.295ZM83.466 112.931c.079.16.236.255.402.255a.444.444 0 0 0 .402-.63l-2.353-5.042c-.265.128-.534.243-.804.368l2.353 5.049ZM90.026 114.452a.446.446 0 0 0 .608.162.442.442 0 0 0 .161-.604l-4.97-8.609c-.256.152-.51.295-.77.441l4.97 8.61ZM92.03 108.075a.441.441 0 0 0 .619.109.445.445 0 0 0 .108-.617l-3.231-4.611c-.236.173-.476.344-.72.513l3.225 4.606ZM54.64 117.781a.444.444 0 0 0 .401.48l.04.001a.444.444 0 0 0 .44-.404l.481-5.517c-.294-.023-.588-.039-.883-.067l-.48 5.507ZM49.006 121.379a.44.44 0 0 0 .358.512l.078.007c.211 0 .398-.15.437-.366l1.71-9.729c-.289-.049-.578-.102-.867-.156l-1.716 9.732ZM64.483 117.858a.44.44 0 0 0 .442.404l.039-.001a.447.447 0 0 0 .402-.48l-.486-5.507c-.289.028-.588.044-.882.067l.485 5.517ZM44.956 115.995a.445.445 0 0 0 .314.543l.113.014a.446.446 0 0 0 .431-.328l1.432-5.341c-.29-.076-.569-.163-.853-.243l-1.437 5.355ZM70.126 121.532c.04.216.226.366.437.366l.078-.007a.44.44 0 0 0 .358-.512l-1.716-9.732c-.29.054-.578.107-.873.156l1.716 9.729ZM98.757 108.435a.44.44 0 0 0 .623.054.444.444 0 0 0 .054-.624l-6.432-7.665c-.221.193-.442.39-.672.579l6.427 7.656ZM112.45 92.353a.442.442 0 1 0 .441-.767l-8.775-5.067c-.143.258-.294.512-.442.768l8.776 5.066ZM106.307 100.993a.44.44 0 0 0 .623-.054.444.444 0 0 0-.054-.624l-7.712-6.47c-.186.23-.373.456-.564.681l7.707 6.467ZM106.008 94.315a.447.447 0 0 0 .618-.11.449.449 0 0 0-.108-.615l-4.706-3.296c-.167.245-.349.48-.515.722l4.711 3.3ZM7.109 91.586a.443.443 0 0 0 .441.767l8.776-5.066c-.148-.256-.295-.51-.442-.768L7.11 91.586ZM38.784 118.56a.443.443 0 1 0 .834.303L43 109.568c-.279-.099-.554-.204-.833-.308l-3.383 9.3ZM27.248 107.567a.44.44 0 0 0 .363.697.448.448 0 0 0 .363-.189l3.221-4.606a81.5 81.5 0 0 1-.72-.513l-3.227 4.611ZM20.571 107.865a.435.435 0 0 0 .054.624c.083.07.181.104.284.104.123 0 .25-.054.339-.158l6.422-7.655c-.226-.19-.446-.387-.667-.58l-6.432 7.665ZM35.735 112.556a.442.442 0 1 0 .799.375l2.358-5.049c-.27-.125-.544-.24-.809-.368l-2.348 5.042ZM13.487 93.59a.44.44 0 0 0-.108.616c.083.123.22.19.363.19a.448.448 0 0 0 .255-.08l4.711-3.3c-.171-.242-.348-.477-.515-.722l-4.706 3.296ZM13.13 100.315a.44.44 0 0 0 .284.782.445.445 0 0 0 .284-.104l7.707-6.467a41.904 41.904 0 0 1-.57-.68l-7.706 6.469ZM29.21 114.01a.442.442 0 0 0 .764.442l4.971-8.61c-.255-.146-.514-.289-.764-.441l-4.972 8.609ZM57.635 9.814a.448.448 0 0 1-.304-.121c-.599-.565-.893-1.467-.81-2.474.06-.683.27-1.324.471-1.943l.123-.372c.142-.445.27-.92.28-1.383.014-.464-.109-.877-.334-1.163a.443.443 0 0 1 .069-.622.443.443 0 0 1 .622.07c.358.449.544 1.064.53 1.735-.015.574-.162 1.123-.324 1.63l-.122.38c-.197.598-.383 1.162-.432 1.743-.064.725.137 1.381.534 1.755a.445.445 0 0 1-.303.765ZM60.35 11.454a.439.439 0 0 1-.303-.121c-.829-.778-1.231-2.027-1.113-3.426.083-.967.382-1.883.671-2.769l.177-.544c.21-.659.407-1.365.421-2.06.015-.72-.171-1.364-.534-1.815a.444.444 0 0 1 .696-.552c.486.613.745 1.46.72 2.386-.014.806-.23 1.586-.46 2.309l-.176.552c-.29.877-.56 1.705-.633 2.568-.098 1.128.21 2.115.838 2.707a.445.445 0 0 1 .02.625.446.446 0 0 1-.324.14ZM62.846 9.814a.43.43 0 0 1-.3-.12c-.602-.566-.896-1.468-.813-2.475.059-.683.27-1.324.47-1.943l.123-.372c.142-.445.27-.92.285-1.383.01-.464-.113-.877-.339-1.163a.442.442 0 1 1 .691-.552c.358.449.545 1.064.53 1.735-.01.574-.162 1.123-.323 1.63l-.123.38c-.196.598-.382 1.162-.431 1.743-.06.725.137 1.381.534 1.755a.44.44 0 0 1 .02.625.446.446 0 0 1-.324.14ZM27.876 54.942v2.748H24.65v-2.922c0-2.748-1.093-4.405-3.579-4.405-2.441 0-3.574 1.657-3.574 4.405v16.138c0 2.747 1.133 4.405 3.574 4.405 2.486 0 3.58-1.658 3.58-4.405v-3.97h3.225v3.795c0 4.624-2.182 7.677-6.893 7.677-4.662 0-6.844-3.053-6.844-7.677V54.942c0-4.623 2.182-7.677 6.844-7.677 4.711 0 6.893 3.054 6.893 7.677ZM34.073 70.906c0 2.791 1.176 4.405 3.618 4.405 2.485 0 3.618-1.614 3.618-4.405V54.768c0-2.748-1.133-4.405-3.618-4.405-2.442 0-3.618 1.657-3.618 4.405v16.138ZM30.71 54.942c0-4.667 2.314-7.677 6.98-7.677 4.712 0 7.021 3.01 7.021 7.677v15.789c0 4.624-2.309 7.677-7.02 7.677-4.667 0-6.981-3.053-6.981-7.677V54.942ZM58.365 61.79v3.097h-7.02v13.215h-3.403V47.571h12.124v3.097h-8.722V61.79h7.021ZM73.195 61.79v3.097h-7.02v13.215h-3.402V47.571h12.123v3.097h-8.721V61.79h7.02ZM88.462 61.092v3.053H81v10.86h9.163v3.097h-12.56V47.571h12.56v3.097H81v10.424h7.462ZM104.165 61.092v3.053h-7.462v10.86h9.163v3.097H93.301V47.571h12.565v3.097h-9.163v10.424h7.462ZM117.951 85.53H2.054a.645.645 0 0 1-.647-.643v-.263c0-.355.29-.643.647-.643h115.897c.353 0 .642.288.642.643v.263a.644.644 0 0 1-.642.643Z" fill="#EEE"/><path d="M117.951 41.982H2.054a.645.645 0 0 1-.647-.644v-.263c0-.355.29-.643.647-.643h115.897c.353 0 .642.288.642.643v.263a.644.644 0 0 1-.642.644Z" fill="#EEE"/><path d="M103.89 41.538C95.39 24.65 78.372 14.16 59.478 14.16c-18.89 0-35.911 10.49-44.412 27.378l-1.32-.663c8.757-17.39 26.279-28.19 45.732-28.19s36.98 10.8 45.731 28.19l-1.319.663ZM59.478 113.252c-19.453 0-36.98-10.803-45.731-28.193l1.319-.664c8.5 16.889 25.517 27.381 44.412 27.381 18.88 0 35.896-10.481 44.402-27.352l1.319.664c-8.76 17.372-26.278 28.164-45.721 28.164Z" fill="#EEE"/><path d="M37.024 29.186v.315h-.77v1.119h.947v.32h-1.295v-3.148h1.295v.32h-.947v1.074h.77ZM38.147 30.004h.7l-.352-1.816-.348 1.816Zm-.044.301-.123.634h-.323l.603-3.147h.51l.598 3.147h-.349l-.122-.634h-.794ZM41.23 28.548v.085h-.333v-.103c0-.283-.108-.45-.358-.45-.255 0-.363.167-.363.446 0 .705 1.06.773 1.06 1.658 0 .477-.231.787-.711.787s-.706-.31-.706-.787v-.18h.328v.198c0 .284.118.45.368.45s.367-.166.367-.45c0-.701-1.049-.769-1.049-1.654 0-.486.226-.787.697-.787.475 0 .7.31.7.787ZM42.22 30.94v-2.828h-.578v-.32h1.51v.32h-.578v2.827h-.353ZM78.941 28.557c0 .949-1.064 1.29-1.069 2.014v.049h1.035v.32h-1.383v-.27c0-1.017 1.069-1.214 1.069-2.1 0-.323-.108-.494-.373-.494-.255 0-.367.184-.367.463v.278h-.329v-.256c0-.481.22-.8.706-.8.49 0 .711.315.711.796ZM79.627 30.198c0 .283.123.453.373.453.26 0 .373-.17.373-.453v-1.663c0-.288-.113-.459-.373-.459-.25 0-.373.17-.373.459v1.663Zm-.348-1.645c0-.481.24-.792.721-.792.485 0 .726.31.726.792v1.622c0 .481-.24.796-.726.796-.48 0-.72-.315-.72-.796v-1.622ZM81.745 28.363a.94.94 0 0 1-.436.135v-.288c.338-.012.456-.197.54-.418h.24v3.147h-.344v-2.576ZM82.986 30.198c0 .283.117.453.372.453s.373-.17.373-.453v-1.663c0-.288-.118-.459-.373-.459s-.372.17-.372.459v1.663Zm-.348-1.645c0-.481.24-.792.72-.792.486 0 .72.31.72.792v1.622c0 .481-.234.796-.72.796-.48 0-.72-.315-.72-.796v-1.622ZM50.575 106.517c-.025.125-.04.188-.064.313-.299-.059-.446-.09-.745-.153-.113.532-.172.798-.284 1.331a46.065 46.065 0 0 1-.373-.082l.686-3.071c.495.111.74.163 1.236.259-.025.125-.035.188-.059.313a40.75 40.75 0 0 1-.897-.183c-.098.448-.142.672-.24 1.12.294.064.44.094.74.153ZM51.894 106.777c.284.048.47-.014.524-.351.02-.118.03-.178.044-.297.05-.28-.034-.442-.294-.486l-.343-.059c-.079.459-.123.688-.201 1.147.108.019.162.029.27.046Zm.333-1.447c.495.082.662.36.593.822-.014.101-.024.152-.039.253-.049.342-.206.538-.5.578.284.131.363.378.314.712l-.074.484c-.024.138-.04.268.01.384a66.7 66.7 0 0 1-.378-.058c-.029-.096-.039-.179-.005-.387.03-.196.05-.294.079-.489.054-.35-.098-.488-.402-.539l-.255-.044c-.093.529-.137.794-.23 1.324-.152-.026-.226-.04-.373-.067l.564-3.095c.28.05.416.075.696.122ZM54.482 107.05c-.015.125-.02.188-.034.313-.319-.035-.48-.055-.8-.096-.058.444-.088.666-.141 1.11.402.052.598.076 1 .119-.01.127-.02.19-.035.317a36.209 36.209 0 0 1-1.382-.17l.426-3.117c.52.071.78.103 1.3.159-.015.127-.025.191-.035.318a34.576 34.576 0 0 1-.956-.114c-.054.427-.078.64-.137 1.066.319.041.475.06.794.095ZM56.678 106.606l-.004.085-.344-.024.01-.103c.02-.282-.078-.456-.328-.476-.255-.021-.378.135-.407.412-.059.703 1.03.855.97 1.738-.029.476-.299.772-.813.73-.515-.042-.726-.377-.682-.851.005-.072.01-.108.02-.179l.343.032c-.005.079-.01.118-.02.197-.024.283.084.46.353.482.27.021.407-.136.427-.418.054-.7-1.035-.86-.951-1.741.049-.484.304-.759.774-.721.476.039.687.361.652.837ZM57.541 107.631c-.03.566-.039.848-.068 1.414l-.378-.018.172-3.143.353.018c-.025.566-.04.849-.064 1.414.319.015.48.021.804.03l.04-1.415c.142.005.21.006.352.009-.024 1.258-.039 1.887-.064 3.146l-.382-.009c.02-.567.025-.85.044-1.416a36.436 36.436 0 0 1-.809-.03ZM60.924 107.418c.29-.007.46-.104.446-.445 0-.121-.005-.18-.01-.301-.01-.283-.117-.426-.382-.42l-.348.009.024 1.164.27-.007Zm.054-1.485c.495-.013.716.227.735.694.005.102.01.153.015.256.015.346-.103.567-.382.662.304.075.426.303.441.64.01.195.015.293.02.489.01.14.02.269.088.375l-.387.015c-.045-.088-.07-.168-.074-.38-.01-.197-.01-.296-.02-.493-.01-.355-.19-.461-.495-.453l-.26.006.025 1.344c-.147.003-.226.003-.378.005l-.034-3.146c.28-.003.422-.006.706-.014ZM62.753 108.259c.02.287.162.445.431.426.27-.019.383-.195.358-.482-.049-.664-.078-.995-.132-1.658-.02-.283-.152-.443-.412-.424-.255.018-.368.195-.348.479.04.663.064.996.103 1.659Zm-.456-1.62c-.03-.481.196-.802.676-.837.49-.034.755.251.8.731.053.648.083.972.142 1.62.039.475-.187.814-.711.851-.515.037-.79-.265-.819-.741-.034-.65-.054-.975-.088-1.624ZM64.895 107.88c.3-.032.446-.05.74-.086a78.51 78.51 0 0 1-.583-1.759c-.059.738-.088 1.107-.157 1.845Zm-.014.305c-.02.257-.035.386-.06.643l-.347.036c.137-1.278.196-1.917.299-3.195.2-.023.304-.035.505-.06a112.5 112.5 0 0 0 1.03 3.039l-.373.05c-.089-.244-.128-.366-.211-.612a40.33 40.33 0 0 1-.844.099ZM67.866 105.982l.015.084-.334.059-.02-.102c-.048-.279-.185-.424-.435-.383-.255.041-.334.223-.295.498.108.697 1.206.582 1.363 1.454.084.469-.103.82-.617.904-.515.083-.8-.191-.868-.662l-.025-.178.343-.052c.01.078.02.117.03.195.044.281.191.426.46.383.266-.044.359-.229.314-.508-.117-.692-1.215-.585-1.348-1.461-.068-.48.113-.809.584-.886.47-.077.75.186.833.655ZM69.342 108.135c-.226-1.108-.338-1.662-.559-2.771-.23.047-.348.07-.579.113-.024-.125-.039-.188-.058-.314.598-.113.897-.174 1.495-.308.024.125.04.188.069.312-.23.052-.348.077-.579.125.235 1.107.348 1.66.583 2.767-.151.031-.225.047-.372.076ZM120 62.599l-1.407 1.408-1.407-1.409 1.407-1.408L120 62.599ZM2.819 62.599l-1.412 1.408L0 62.598l1.407-1.408 1.412 1.409Z" fill="#EEE"/></svg></svg>